<svg width="25" height="25" viewBox="0 0 25 25" fill="none" xmlns="http://www.w3.org/2000/svg">
<path d="M10.6689 14.3066C10.6689 15.249 9.98535 15.5469 9.14551 15.5469H6.94336V12.9639H9.18945C10.0977 12.9688 10.6689 13.3447 10.6689 14.3066ZM10.293 10.2881C10.293 9.42383 9.62402 9.21875 8.88184 9.21875H6.94824V11.4063H9.0332C9.77051 11.4063 10.293 11.084 10.293 10.2881ZM16.7529 11.4209C15.8594 11.4209 15.2637 11.9775 15.2051 12.8711H18.2422C18.1592 11.9678 17.6904 11.4209 16.7529 11.4209ZM23.4375 3.90625V21.0938C23.4375 22.3877 22.3877 23.4375 21.0938 23.4375H3.90625C2.6123 23.4375 1.5625 22.3877 1.5625 21.0938V3.90625C1.5625 2.6123 2.6123 1.5625 3.90625 1.5625H21.0938C22.3877 1.5625 23.4375 2.6123 23.4375 3.90625ZM14.8291 9.0332H18.6279V8.11035H14.8291V9.0332ZM12.7295 14.4189C12.7295 13.2422 12.1729 12.2266 11.0205 11.8994C11.8604 11.499 12.2998 11.0352 12.2998 10.0928C12.2998 8.22754 10.9082 7.77344 9.30176 7.77344H4.88281V17.1484H9.42871C11.1328 17.1387 12.7295 16.3232 12.7295 14.4189ZM20.1172 13.6963C20.1172 11.6895 18.9404 10.0146 16.8164 10.0146C14.7461 10.0146 13.3447 11.5674 13.3447 13.6084C13.3447 15.7227 14.6777 17.1729 16.8164 17.1729C18.4375 17.1729 19.4873 16.4453 19.9951 14.8877H18.3496C18.1689 15.4687 17.4414 15.7715 16.875 15.7715C15.7813 15.7715 15.21 15.1318 15.21 14.0479H20.1025C20.1074 13.9355 20.1172 13.8135 20.1172 13.6963Z" fill="black"/>
</svg>
