<svg width="25" height="25" viewBox="0 0 25 25" fill="none" xmlns="http://www.w3.org/2000/svg">
<path d="M5.9668 11.1426C6.40137 9.07227 7.79297 7.34863 9.66309 6.46973C9.83887 6.70898 11.0303 8.36426 12.1387 10.3271C9.01367 11.1572 6.26465 11.1475 5.9668 11.1426ZM16.9238 7.51953C15.2832 6.06445 13.0518 5.5127 10.9375 6.02539C11.123 6.27441 12.334 7.9248 13.4277 9.93164C15.8008 9.03809 16.8018 7.69043 16.9238 7.51953ZM8.40332 17.7734C10.3809 19.3164 12.959 19.5654 15.1074 18.6523C15.0098 18.0664 14.6191 16.0254 13.6816 13.5937C10.9912 14.5117 9.10156 16.3477 8.40332 17.7734ZM13.2275 12.4902C13.0615 12.1094 12.876 11.7334 12.6855 11.3574C9.35547 12.3535 6.12305 12.3145 5.83008 12.3047C5.83008 12.373 5.8252 12.4414 5.8252 12.5098C5.8252 14.2236 6.47461 15.7861 7.53906 16.9727C8.62305 15.1221 10.8154 13.1689 13.2275 12.4902ZM14.9316 13.2861C15.8057 15.6836 16.1572 17.6367 16.2256 18.042C17.7246 17.0312 18.7891 15.4248 19.0869 13.5693C18.8623 13.4961 17.0215 12.9492 14.9316 13.2861ZM13.9404 10.9229C14.1748 11.4014 14.3457 11.792 14.5264 12.2314C16.748 11.9531 18.9551 12.3975 19.1748 12.4463C19.1602 10.8691 18.5986 9.42383 17.666 8.29102C17.5244 8.48145 16.4062 9.91211 13.9404 10.9229ZM23.4375 3.90625V21.0938C23.4375 22.3877 22.3877 23.4375 21.0938 23.4375H3.90625C2.6123 23.4375 1.5625 22.3877 1.5625 21.0938V3.90625C1.5625 2.6123 2.6123 1.5625 3.90625 1.5625H21.0938C22.3877 1.5625 23.4375 2.6123 23.4375 3.90625ZM20.3125 12.5C20.3125 8.19336 16.8066 4.6875 12.5 4.6875C8.19336 4.6875 4.6875 8.19336 4.6875 12.5C4.6875 16.8066 8.19336 20.3125 12.5 20.3125C16.8066 20.3125 20.3125 16.8066 20.3125 12.5Z" fill="black"/>
</svg>
