<svg width="89" height="48" viewBox="0 0 89 48" fill="none" xmlns="http://www.w3.org/2000/svg">
<path d="M82.712 32.416C81.032 32.416 79.6507 31.9307 78.568 30.96C77.5227 29.952 77 28.72 77 27.264C77 25.7707 77.5227 24.52 78.568 23.512C79.6507 22.504 81.032 22 82.712 22C84.3547 22 85.6987 22.504 86.744 23.512C87.8267 24.52 88.368 25.7707 88.368 27.264C88.368 28.72 87.8267 29.952 86.744 30.96C85.6987 31.9307 84.3547 32.416 82.712 32.416Z" fill="#042A29"/>
<path d="M51.776 0C53.9787 0 55.9013 0.448 57.544 1.344C59.224 2.24 60.512 3.416 61.408 4.872V0.448001H70.984V31.64C70.984 34.5147 70.4053 37.1093 69.248 39.424C68.128 41.776 66.392 43.6427 64.04 45.024C61.7253 46.4053 58.832 47.096 55.36 47.096C50.7307 47.096 46.9787 45.9947 44.104 43.792C41.2293 41.6267 39.5867 38.6773 39.176 34.944H48.64C48.9387 36.1387 49.648 37.072 50.768 37.744C51.888 38.4533 53.2693 38.808 54.912 38.808C56.8907 38.808 58.4587 38.2293 59.616 37.072C60.8107 35.952 61.408 34.1413 61.408 31.64V27.216C60.4747 28.672 59.1867 29.8667 57.544 30.8C55.9013 31.696 53.9787 32.144 51.776 32.144C49.2 32.144 46.8667 31.4907 44.776 30.184C42.6853 28.84 41.024 26.9547 39.792 24.528C38.5973 22.064 38 19.2267 38 16.016C38 12.8053 38.5973 9.98667 39.792 7.56C41.024 5.13333 42.6853 3.26667 44.776 1.96C46.8667 0.653334 49.2 0 51.776 0ZM61.408 16.072C61.408 13.6827 60.736 11.7973 59.392 10.416C58.0853 9.03467 56.48 8.344 54.576 8.344C52.672 8.344 51.048 9.03467 49.704 10.416C48.3973 11.76 47.744 13.6267 47.744 16.016C47.744 18.4053 48.3973 20.3093 49.704 21.728C51.048 23.1093 52.672 23.8 54.576 23.8C56.48 23.8 58.0853 23.1093 59.392 21.728C60.736 20.3467 61.408 18.4613 61.408 16.072Z" fill="#03A069"/>
<path d="M0 16.016C0 12.8053 0.597333 9.98667 1.792 7.56C3.024 5.13333 4.68533 3.26667 6.776 1.96C8.86667 0.653334 11.2 0 13.776 0C15.9787 0 17.9013 0.448 19.544 1.344C21.224 2.24 22.512 3.416 23.408 4.872V0.448001H32.984V31.696H23.408V27.272C22.4747 28.728 21.168 29.904 19.488 30.8C17.8453 31.696 15.9227 32.144 13.72 32.144C11.1813 32.144 8.86667 31.4907 6.776 30.184C4.68533 28.84 3.024 26.9547 1.792 24.528C0.597333 22.064 0 19.2267 0 16.016ZM23.408 16.072C23.408 13.6827 22.736 11.7973 21.392 10.416C20.0853 9.03467 18.48 8.344 16.576 8.344C14.672 8.344 13.048 9.03467 11.704 10.416C10.3973 11.76 9.744 13.6267 9.744 16.016C9.744 18.4053 10.3973 20.3093 11.704 21.728C13.048 23.1093 14.672 23.8 16.576 23.8C18.48 23.8 20.0853 23.1093 21.392 21.728C22.736 20.3467 23.408 18.4613 23.408 16.072Z" fill="#042A29"/>
</svg>
