<svg width="116" height="116" viewBox="0 0 116 116" fill="none" xmlns="http://www.w3.org/2000/svg">
<g clip-path="url(#clip0_240_156)">
<path d="M58 116C90.0325 116 116 90.0325 116 58C116 25.9675 90.0325 0 58 0C25.9675 0 0 25.9675 0 58C0 90.0325 25.9675 116 58 116Z" fill="#58B0E0"/>
<path fill-rule="evenodd" clip-rule="evenodd" d="M43.6501 72.6033L73.5079 72.8304V97.0778L43.6501 96.8506V72.6033Z" fill="#F9DCA4"/>
<path fill-rule="evenodd" clip-rule="evenodd" d="M82.5345 110.566C74.945 114.101 66.6814 115.954 58.3093 116C49.9371 116.045 41.654 114.281 34.0266 110.829V90.8799H82.5326L82.5345 110.566Z" fill="#E6E6E6"/>
<path fill-rule="evenodd" clip-rule="evenodd" d="M62.6983 115.812C61.1491 115.936 59.583 115.999 58.0001 116C56.805 116 55.6194 115.964 54.4431 115.893L56.3764 99.0225H60.9001L62.6983 115.812Z" fill="#E9573E"/>
<path fill-rule="evenodd" clip-rule="evenodd" d="M48.1588 115.122C41.7639 113.931 35.5882 111.771 29.8447 108.717C24.3281 105.647 19.3472 101.701 15.0969 97.0328L17.507 91.214L43.6446 79.554C43.6446 89.337 46.8561 104.858 48.1588 115.122Z" fill="#677079"/>
<path opacity="0.11" fill-rule="evenodd" clip-rule="evenodd" d="M73.5137 72.7516V78.8163C64.6316 89.1906 47.6614 87.7227 43.8567 72.4119L73.5137 72.7516Z" fill="black"/>
<path fill-rule="evenodd" clip-rule="evenodd" d="M58.4299 15.8271C98.3748 15.8271 82.8068 82.0222 58.4299 82.0222C35.4044 82.0222 18.485 15.8271 58.4299 15.8271Z" fill="#FFE8BE"/>
<path fill-rule="evenodd" clip-rule="evenodd" d="M34.4715 45.1349C28.709 47.6483 33.608 59.5617 37.2345 59.5092C35.7302 54.8478 34.8023 50.0218 34.4715 45.1349ZM82.8517 45.1331C88.6142 47.6464 83.7152 59.5617 80.0906 59.5073C81.5937 54.8464 82.5209 50.0191 82.8517 45.1331Z" fill="#F9DCA4"/>
<path fill-rule="evenodd" clip-rule="evenodd" d="M41.1649 26.8939C34.9069 33.3847 37.1086 51.3515 37.1086 51.3515L35.1378 50.4224C22.8358 2.75728 94.5155 2.7554 82.1441 50.4224L80.1732 51.3515C80.1732 51.3515 82.3768 33.3847 76.1188 26.8939C68.3874 34.3926 48.8532 34.3532 41.1649 26.8939Z" fill="#464449"/>
<path fill-rule="evenodd" clip-rule="evenodd" d="M69.0125 114.955C81.6961 112.505 93.1971 105.886 101.688 96.1505L99.6417 91.2121L73.506 79.552C73.506 89.335 70.3151 104.691 69.0125 114.955Z" fill="#677079"/>
<path fill-rule="evenodd" clip-rule="evenodd" d="M73.5079 78.7974L58.6306 90.9323L70.9683 102.031C70.9683 102.031 74.2568 83.8165 73.5079 78.7974Z" fill="white"/>
<path fill-rule="evenodd" clip-rule="evenodd" d="M43.6465 78.7974L58.6421 90.9323L46.1692 102.031C46.1692 102.031 42.892 83.8165 43.6465 78.7974Z" fill="white"/>
<path fill-rule="evenodd" clip-rule="evenodd" d="M52.7612 96.1542L58.6495 90.8647L64.5377 96.1542L58.6495 101.442L52.7612 96.1542Z" fill="#E9573E"/>
<path fill-rule="evenodd" clip-rule="evenodd" d="M48.3652 115.198C45.9684 114.797 43.5993 114.246 41.2719 113.547C41.199 113.49 41.1276 113.432 41.0579 113.372L34.4227 101.378L42.9462 95.2589H34.0266L35.9355 82.3994L43.6501 77.521C43.9842 91.3547 46.9518 106.908 48.3652 115.198ZM68.7834 114.998C69.8871 114.814 70.9796 114.558 72.0626 114.277C73.3418 113.938 74.6147 113.576 75.8805 113.19L76.132 113.109L82.7222 101.256L74.1986 95.1706H83.1183L81.2093 82.375L73.4948 77.521C73.1607 91.2833 70.195 106.748 68.7834 114.998Z" fill="#434955"/>
</g>
<defs>
<clipPath id="clip0_240_156">
<rect width="116" height="116" fill="white"/>
</clipPath>
</defs>
</svg>
