<svg width="64" height="68" viewBox="0 0 64 68" fill="none" xmlns="http://www.w3.org/2000/svg">
<g clip-path="url(#clip0_240_75)">
<path d="M45.0264 61.4675C45.7339 61.4675 46.3064 60.8944 46.3064 60.1875V14.4832C46.3064 13.8792 45.8756 13.5494 45.8012 13.4213C45.7988 13.4192 45.7977 13.4158 45.7952 13.4138L35.3852 1.70941C35.1427 1.43628 34.7939 1.28003 34.4289 1.28003H4.40891C3.70203 1.28003 3.12891 1.85315 3.12891 2.56003V60.1875C3.12891 60.8944 3.70203 61.4675 4.40891 61.4675H45.0264ZM35.6814 5.89558L42.1194 13.1369H35.6814V5.89558ZM5.68891 3.84003H33.1214V14.4169C33.1214 15.1238 33.6939 15.6969 34.4014 15.6969H43.7464V58.9075H5.68891V3.84003Z" fill="#F24E1E"/>
<path d="M38.1862 24.5581H11.2487C10.5413 24.5581 9.96875 25.1312 9.96875 25.8381C9.96875 26.545 10.5413 27.1181 11.2487 27.1181H38.1862C38.8937 27.1181 39.4662 26.545 39.4662 25.8381C39.4662 25.1312 38.8937 24.5581 38.1862 24.5581Z" fill="#A259FF"/>
<path d="M38.1862 32.8906H11.2487C10.5413 32.8906 9.96875 33.4637 9.96875 34.1706C9.96875 34.8775 10.5413 35.4506 11.2487 35.4506H38.1862C38.8937 35.4506 39.4662 34.8775 39.4662 34.1706C39.4662 33.4637 38.8937 32.8906 38.1862 32.8906Z" fill="#A259FF"/>
<path d="M38.1862 41.2238H11.2487C10.5413 41.2238 9.96875 41.7969 9.96875 42.5038C9.96875 43.2106 10.5413 43.7838 11.2487 43.7838H38.1862C38.8937 43.7838 39.4662 43.2106 39.4662 42.5038C39.4662 41.7969 38.8937 41.2238 38.1862 41.2238Z" fill="#A259FF"/>
<path d="M55.3776 62.7201C55.8813 62.7201 56.3388 62.4245 56.5451 61.9645L60.7588 52.582C60.824 52.4363 60.8567 52.2541 60.8647 52.0887C60.8649 52.078 60.8713 52.0683 60.8713 52.0576C60.8713 38.7897 60.8713 28.1672 60.8713 8.03384C60.8888 5.1057 58.5476 2.5332 55.3638 2.5332C52.3256 2.5332 49.8761 4.99819 49.8838 8.02632C49.8838 20.7556 49.8838 32.0011 49.8838 52.0576C49.8838 52.2382 49.9225 52.4169 49.9963 52.5819L54.2101 61.9644C54.4163 62.4245 54.8738 62.7201 55.3776 62.7201ZM53.1263 53.302H57.6288L55.3776 58.3157L53.1263 53.302ZM52.4438 12.4788H58.3113V50.742H52.4438V12.4788ZM52.4438 8.02321C52.4315 4.17549 58.3358 4.17348 58.3113 8.02634V9.91884H52.4438V8.02321Z" fill="#0ACF83"/>
</g>
<defs>
<clipPath id="clip0_240_75">
<rect width="64" height="68" fill="white"/>
</clipPath>
</defs>
</svg>
