<svg width="116" height="116" viewBox="0 0 116 116" fill="none" xmlns="http://www.w3.org/2000/svg">
<g clip-path="url(#clip0_240_137)">
<path fill-rule="evenodd" clip-rule="evenodd" d="M58.4298 15.8271C98.3747 15.8271 82.8067 82.0222 58.4298 82.0222C35.4062 82.0222 18.4848 15.8271 58.4298 15.8271Z" fill="#FFE8BE"/>
<path d="M58 116C90.0325 116 116 90.0325 116 58C116 25.9675 90.0325 0 58 0C25.9675 0 0 25.9675 0 58C0 90.0325 25.9675 116 58 116Z" fill="#58B0E0"/>
<path fill-rule="evenodd" clip-rule="evenodd" d="M85.3801 37.5161L30.6217 37.8446C30.6217 37.8446 32.5889 68.1548 25.7058 77.6562H92.7174C90.9905 75.1223 86.4237 74.3058 85.3801 37.5161Z" fill="#60350A"/>
<path fill-rule="evenodd" clip-rule="evenodd" d="M34.0398 85.5903L47.5656 79.6083L69.2452 79.0452L83.1727 86.3599L73.1175 107.411L58.8278 115.084L44.0462 106.919L34.0398 85.5903Z" fill="#D5E1ED"/>
<path fill-rule="evenodd" clip-rule="evenodd" d="M46.4451 72.6033L70.7168 72.7609V89.5584L46.4451 89.3989V72.6033Z" fill="#F9DCA4"/>
<path opacity="0.11" fill-rule="evenodd" clip-rule="evenodd" d="M70.7206 72.7873V79.507C70.747 80.2749 70.7219 81.0437 70.6455 81.8082C70.5324 82.6559 70.3356 83.4902 70.058 84.2991C61.8554 92.1169 48.6994 85.7631 46.614 72.4119L70.7206 72.7873Z" fill="black"/>
<path fill-rule="evenodd" clip-rule="evenodd" d="M99.1012 98.9209C93.667 104.38 87.1997 108.701 80.077 111.633C72.9542 114.565 65.3188 116.049 57.6163 115.998C49.9139 115.947 42.2988 114.362 35.2156 111.335C28.1325 108.309 21.7233 103.902 16.3621 98.371L18.6539 92.5559L35.7404 84.8188C41.8633 96.0434 48.523 106.45 58.8597 113.828C68.2166 106.04 75.796 96.3367 81.0874 85.3726L96.3739 92.6047L99.1012 98.9209Z" fill="#434955"/>
<path fill-rule="evenodd" clip-rule="evenodd" d="M35.87 45.392C30.3178 47.8134 35.0404 59.3008 38.5354 59.2501C37.0851 54.7567 36.19 50.1028 35.87 45.392ZM81.6637 45.3901C87.2197 47.8153 82.4952 59.3008 79.0002 59.2501C80.4502 54.7561 81.3447 50.1015 81.6637 45.3901Z" fill="#F9DCA4"/>
<path fill-rule="evenodd" clip-rule="evenodd" d="M58.4016 16.2664C74.773 16.2664 81.6336 27.9039 82.054 41.3565C82.6302 59.7701 71.4019 81.5811 58.4035 81.5811C46.0902 81.5811 34.5541 59.0231 35.2542 40.4218C35.7422 27.3708 42.4132 16.2664 58.4016 16.2664Z" fill="#FFE8BE"/>
<path fill-rule="evenodd" clip-rule="evenodd" d="M62.6906 46.8937C65.6235 45.102 69.1084 44.4394 72.4943 45.0298H72.5036C82.1778 46.2123 82.328 49.2193 81.3876 49.9119C80.7581 50.4321 80.2544 51.0879 79.9141 51.8302C79.704 53.7901 79.0268 55.6709 77.9395 57.3149C77.2154 58.4492 76.2636 59.4206 75.1443 60.1677C74.025 60.9147 72.7627 61.4211 71.4375 61.6546C71.1221 61.7053 70.7993 61.7447 70.4689 61.7634C69.1774 61.856 67.8824 61.6398 66.6911 61.1325C65.4997 60.6253 64.4462 59.8417 63.6178 58.8466C62.4197 57.44 61.4805 55.8321 60.8436 54.0977V54.1033C60.8436 54.1033 59.3476 51.0325 56.9544 53.8893C56.3116 55.7004 55.3448 57.3795 54.1013 58.8447C53.2727 59.8402 52.219 60.6242 51.0273 61.1317C49.8356 61.6392 48.5403 61.8558 47.2483 61.7634C46.9238 61.7432 46.6006 61.7069 46.2798 61.6546C44.9545 61.421 43.6923 60.9146 42.573 60.1675C41.4538 59.4205 40.5019 58.4491 39.7777 57.3149C38.6908 55.6714 38.0137 53.7913 37.8031 51.8321C37.4791 51.0873 36.984 50.4294 36.3578 49.9119C35.4193 49.2174 35.5601 46.2086 45.2343 45.026H45.238C48.638 44.4387 52.1355 45.1129 55.0736 46.9218L55.0717 46.92L55.0774 46.9237L55.4809 47.1696C56.6061 47.7449 57.8602 48.0215 59.123 47.9728C60.3857 47.9242 61.6149 47.5519 62.6924 46.8918L62.6906 46.8937ZM53.9211 48.0912C52.1767 47.0837 50.2139 46.5142 48.2011 46.4315C46.1883 46.3488 44.1855 46.7553 42.3643 47.6163C39.5281 48.904 38.6628 49.8124 39.7627 53.5534C40.0607 54.5738 40.5113 55.5433 41.0992 56.429C41.7627 57.5085 42.6764 58.4124 43.763 59.0642C44.8497 59.716 46.0773 60.0966 47.3421 60.1736C48.393 60.246 49.446 60.0672 50.414 59.652C51.3821 59.2368 52.2375 58.5972 52.9094 57.786C54.0222 56.4697 54.8871 54.9624 55.4621 53.3375C56.7366 49.9964 57.0801 49.8406 53.923 48.0912H53.9211ZM74.4689 47.2466C72.6682 46.5701 70.7368 46.314 68.822 46.4978C66.9073 46.6816 65.0598 47.3004 63.4207 48.3071C60.5339 50.017 61.0594 50.3023 62.3358 53.544C62.9035 55.0921 63.7397 56.5281 64.806 57.786C65.4781 58.5975 66.3337 59.2373 67.3022 59.6524C68.2706 60.0676 69.3239 60.2463 70.3751 60.1736C70.6455 60.1574 70.9149 60.1273 71.1822 60.0835C72.2919 59.8837 73.3479 59.4557 74.2836 58.8266C75.2193 58.1976 76.0142 57.3811 76.6181 56.429C77.1729 55.5939 77.6052 54.6837 77.902 53.726C79.2196 49.5027 78.0446 48.5624 74.4708 47.2484L74.4689 47.2466Z" fill="#464449"/>
<path fill-rule="evenodd" clip-rule="evenodd" d="M33.5799 48.0669C33.5799 46.8693 35.4269 46.4038 36.5794 53.591C37.5101 50.6553 38.1119 47.6254 38.3738 44.5569C40.5549 44.9792 42.6497 49.9026 41.9909 54.2198C47.9335 52.7613 63.2069 43.5451 68.1735 31.0873C80.8847 38.4096 80.8152 53.7881 80.8152 53.7881C80.8152 53.7881 81.4872 50.2217 81.8626 47.1884C81.9865 46.1786 82.4126 45.8126 83.3604 46.7886C90.2341 32.5533 79.3981 10.793 58.7452 10.4551C30.3871 9.99336 26.7795 40.7014 33.5818 48.0688L33.5799 48.0669Z" fill="#8A5C42"/>
<path fill-rule="evenodd" clip-rule="evenodd" d="M46.4845 79.644C49.4501 84.0634 53.6772 87.488 58.6157 89.4721L50.7172 101.005L39.6108 82.6473L46.4845 79.644Z" fill="white"/>
<path fill-rule="evenodd" clip-rule="evenodd" d="M70.7301 79.644C67.7644 84.0633 63.5373 87.4879 58.5989 89.4721L66.4993 101.005L77.6732 82.8575L70.7301 79.644Z" fill="white"/>
<path d="M58.6063 100.235C59.4761 100.235 60.1811 99.5298 60.1811 98.66C60.1811 97.7903 59.4761 97.0852 58.6063 97.0852C57.7366 97.0852 57.0315 97.7903 57.0315 98.66C57.0315 99.5298 57.7366 100.235 58.6063 100.235Z" fill="#434955"/>
<path d="M58.6063 107.234C59.4761 107.234 60.1811 106.529 60.1811 105.66C60.1811 104.79 59.4761 104.085 58.6063 104.085C57.7366 104.085 57.0315 104.79 57.0315 105.66C57.0315 106.529 57.7366 107.234 58.6063 107.234Z" fill="#434955"/>
<path fill-rule="evenodd" clip-rule="evenodd" d="M78.8294 46.4319C82.178 47.7683 82.056 49.3995 81.3953 49.8875C80.7658 50.4077 80.2621 51.0635 79.9218 51.8058C79.7752 53.1621 79.4061 54.485 78.8294 55.7213V46.4319ZM38.5316 54.8391C38.1651 53.8629 37.9229 52.8444 37.8108 51.8077C37.487 51.0627 36.9918 50.4048 36.3655 49.8875C35.733 49.4201 35.5903 47.8978 38.5316 46.5952V54.8391Z" fill="#464449"/>
</g>
<defs>
<clipPath id="clip0_240_137">
<rect width="116" height="116" fill="white"/>
</clipPath>
</defs>
</svg>
