<svg width="64" height="64" viewBox="0 0 64 64" fill="none" xmlns="http://www.w3.org/2000/svg">
<g clip-path="url(#clip0_240_68)">
<path d="M21.3332 64C27.2212 64 31.9998 59.2213 31.9998 53.3333V42.6666H21.3332C15.4452 42.6666 10.6665 47.4453 10.6665 53.3333C10.6665 59.2213 15.4452 64 21.3332 64Z" fill="#0ACF83"/>
<path d="M10.6665 32C10.6665 26.112 15.4452 21.3334 21.3332 21.3334H31.9998V42.6667H21.3332C15.4452 42.6667 10.6665 37.888 10.6665 32Z" fill="#A259FF"/>
<path d="M10.6665 10.6667C10.6665 4.77867 15.4452 0 21.3332 0H31.9998V21.3333H21.3332C15.4452 21.3333 10.6665 16.5547 10.6665 10.6667Z" fill="#F24E1E"/>
<path d="M32 0H42.6667C48.5547 0 53.3333 4.77867 53.3333 10.6667C53.3333 16.5547 48.5547 21.3333 42.6667 21.3333H32V0Z" fill="#FF7262"/>
<path d="M53.3333 32C53.3333 37.888 48.5547 42.6667 42.6667 42.6667C36.7787 42.6667 32 37.888 32 32C32 26.112 36.7787 21.3334 42.6667 21.3334C48.5547 21.3334 53.3333 26.112 53.3333 32Z" fill="#1ABCFE"/>
</g>
<defs>
<clipPath id="clip0_240_68">
<rect width="64" height="64" fill="white"/>
</clipPath>
</defs>
</svg>
